HIERARCHY
ROOT Hips
{
  OFFSET 1.44925e-005 102.336 -0.101585
  CHANNELS 6 Xposition Yposition Zposition Zrotation Xrotation Yrotation
  JOINT RightUpLeg
  {
    OFFSET -8.9458 -8.66707 0.101652
    CHANNELS 3 Zrotation Xrotation Yrotation
    JOINT RightLeg
    {
      OFFSET 0 -44.4227 1.3727
      CHANNELS 3 Zrotation Xrotation Yrotation
      JOINT RightFoot
      {
        OFFSET 0.253549 -42.0924 -1.46059
        CHANNELS 3 Zrotation Xrotation Yrotation
        JOINT RightToes
        {
          OFFSET 0.04 -4.41509 8.4991
          CHANNELS 3 Zrotation Xrotation Yrotation
          End Site
          {
            OFFSET -0.08 -0.137448 9.77979
          }
        }
      }
    }
  }
  JOINT Spine
  {
    OFFSET 0 11.8905 0
    CHANNELS 3 Zrotation Xrotation Yrotation
    JOINT Spine1
    {
      OFFSET 0 25.6574 0.127663
      CHANNELS 3 Zrotation Xrotation Yrotation
      JOINT HEad
      {
        OFFSET 0 8.73416 0.011341
        CHANNELS 3 Zrotation Xrotation Yrotation
        End Site
        {
          OFFSET -0.29 12.7742 2.51395
        }
      }
      JOINT LeftShoulder1
      {
        OFFSET 8.99 -0.362252 -0.22
        CHANNELS 3 Zrotation Xrotation Yrotation
        JOINT LeftArm
        {
          OFFSET 10.2827 -0.00337999 0.322123
          CHANNELS 3 Zrotation Xrotation Yrotation
          JOINT LeftForeArm
          {
            OFFSET 26.2597 0.099144 -1.42434
            CHANNELS 3 Zrotation Xrotation Yrotation
            JOINT LeftHand
            {
              OFFSET 22.0902 0.085362 1.02216
              CHANNELS 3 Zrotation Xrotation Yrotation
              End Site
              {
                OFFSET 13.419 -0.6 1.50291
              }
            }
          }
        }
      }
      JOINT RightShoulder
      {
        OFFSET -8.99 -0.362252 -0.22
        CHANNELS 3 Zrotation Xrotation Yrotation
        JOINT RightArm
        {
          OFFSET -10.2827 -0.00338 0.322123
          CHANNELS 3 Zrotation Xrotation Yrotation
          JOINT RightForeArm
          {
            OFFSET -26.364 0.099144 -1.42434
            CHANNELS 3 Zrotation Xrotation Yrotation
            JOINT RightHand
            {
              OFFSET -22.0324 0.085362 1.02216
              CHANNELS 3 Zrotation Xrotation Yrotation
              End Site
              {
                OFFSET -13.3284 -0.6 1.50291
              }
            }
          }
        }
      }
    }
  }
  JOINT LeftUpLeg
  {
    OFFSET 8.9458 -8.66707 0.101652
    CHANNELS 3 Zrotation Xrotation Yrotation
    JOINT LeftLeg
    {
      OFFSET 0 -44.4227 1.3727
      CHANNELS 3 Zrotation Xrotation Yrotation
      JOINT LeftFoot
      {
        OFFSET -0.253549 -42.0924 -1.46059
        CHANNELS 3 Zrotation Xrotation Yrotation
        JOINT LeftToes
        {
          OFFSET -0.04 -4.41509 8.4991
          CHANNELS 3 Zrotation Xrotation Yrotation
          End Site
          {
            OFFSET 0.08 -0.047448 9.77979
          }
        }
      }
    }
  }
}
MOTION
Frames:	7
Frame Time:	0.0333333
-3.01087 105.712 28.1362 1.02972 6.02252 177.257 -10.347 8.81545 -8.41349 0.452393 9.47419 -8.41458 12.6711 -8.56619 -0.0810622 0.0462048 0.000530889 0.662642 0.993979 -0.668801 -0.275474 -0.130848 3.15727 -0.407687 -0.933657 -1.68941 -0.711904 -28.5253 1.41933 -0.59535 -45.3618 -23.6176 -14.042 -8.88417 28.0132 -1.48974 4.11795 9.70072 -1.28772 36.896 5.46043 8.64542 29.309 -35.6417 -1.72881 4.55261 33.0564 5.32638 -23.5822 8.80714 0.0731862 13.6724 4.84926 9.20926 -2.71598 12.3966 3.14504 -11.4444 -6.54911 0.13751 -1.29642e-009 8.75234e-006 -1.46973e-008 
-3.00558 105.712 28.1313 1.02142 6.06221 177.354 -10.3226 8.86346 -8.41459 0.425473 9.51201 -8.5466 12.6013 -8.56695 -0.0810624 0.0462048 0.000530889 0.662642 0.994293 -0.729842 -0.276831 -0.129302 3.30141 -0.409515 -1.0903 -1.62032 -0.657651 -28.5461 1.41104 -0.569009 -45.3836 -23.5186 -14.3172 -8.97025 28.4108 -1.28976 4.44435 9.67639 -1.47512 36.8471 5.46133 8.66315 29.332 -35.6172 -1.6499 4.60439 32.8427 5.27849 -23.5246 8.78455 0.2023 13.6708 4.87987 9.19647 -2.70282 12.3642 3.05559 -11.4443 -6.52236 0.138475 -1.29642e-009 8.75234e-006 -1.46973e-008 
-2.99161 105.713 28.1259 1.00489 6.11011 177.529 -10.2822 8.9476 -8.41668 0.405459 9.54003 -8.76305 12.4984 -8.5729 -0.0810636 0.0462048 0.000530889 0.662642 0.990334 -0.830684 -0.289539 -0.124006 3.51246 -0.417405 -1.40708 -1.5695 -0.499483 -28.5586 1.40085 -0.538215 -45.4309 -23.401 -14.7726 -9.0706 29.249 -1.05065 4.5086 9.66447 -1.74852 36.8104 5.4677 8.6892 29.3145 -35.6422 -1.48466 4.66831 32.5758 5.14964 -23.1063 8.77406 0.364873 13.6775 4.90659 9.18569 -2.68769 12.3107 2.89519 -11.4435 -6.48208 0.14197 -1.29642e-009 8.75234e-006 -1.46973e-008 
-2.97068 105.716 28.1233 0.989258 6.11726 177.685 -10.2541 9.0022 -8.41915 0.414353 9.53595 -8.92651 12.459 -8.58821 -0.0810669 0.0462048 0.000530889 0.662642 0.963501 -0.933278 -0.29861 -0.108925 3.66655 -0.425619 -1.70609 -1.6013 -0.352477 -28.5262 1.39396 -0.522044 -45.5156 -23.3506 -15.2083 -9.09337 30.1137 -0.973054 3.84214 9.70125 -1.91346 36.8472 5.48239 8.71239 29.1813 -35.6881 -1.32913 4.70831 32.5984 4.99996 -22.4723 8.78412 0.485069 13.6929 4.89267 9.18522 -2.6817 12.2642 2.75246 -11.4433 -6.45216 0.144492 -1.29642e-009 8.75234e-006 -1.46973e-008 
-2.94749 105.718 28.1272 0.986012 6.07878 177.777 -10.2299 8.99973 -8.41801 0.437508 9.51097 -9.01429 12.4929 -8.60051 -0.0810695 0.0462048 0.000530889 0.662642 0.921259 -1.05547 -0.297449 -0.069968 3.79182 -0.430469 -1.84531 -1.7347 -0.295603 -28.4568 1.38996 -0.51823 -45.6556 -23.3534 -15.5801 -9.03369 30.6911 -1.06558 2.95143 9.75539 -2.02391 36.9382 5.50284 8.73297 28.9671 -35.6484 -1.22492 4.75168 32.9129 4.91396 -22.1317 8.78013 0.6033 13.7174 4.82879 9.195 -2.6763 12.25 2.65726 -11.4488 -6.43339 0.146567 -1.29642e-009 8.75234e-006 -1.46973e-008 
-2.92602 105.721 28.1424 1.00783 6.03463 177.831 -10.1816 8.97593 -8.39944 0.453797 9.47768 -9.09426 12.5191 -8.59396 -0.0810681 0.0462048 0.000530889 0.662642 0.889738 -1.17987 -0.298693 -0.00150433 3.93026 -0.443743 -1.83365 -1.94897 -0.281703 -28.3901 1.38788 -0.518894 -45.8189 -23.331 -15.9157 -8.96161 31.0494 -1.26182 2.74746 9.76542 -2.20857 37.0176 5.51911 8.74721 28.7877 -35.5236 -1.13282 4.81133 33.1903 4.926 -22.304 8.73757 0.781901 13.7609 4.74217 9.21499 -2.6596 12.2749 2.58173 -11.456 -6.41775 0.14836 -1.29642e-009 8.75234e-006 -1.46973e-008 
-2.90834 105.722 28.1687 1.04438 6.02326 177.847 -10.1199 8.96021 -8.36977 0.455269 9.46142 -9.16161 12.492 -8.57962 -0.0810651 0.0462048 0.000530889 0.662642 0.888104 -1.22283 -0.295979 0.0674672 4.01368 -0.458203 -1.73903 -2.14496 -0.282484 -28.3453 1.38483 -0.516211 -45.9373 -23.2243 -16.1942 -8.92583 31.3261 -1.55995 3.37603 9.72062 -2.39704 37.057 5.5239 8.74672 28.7051 -35.4355 -1.03468 4.83967 33.2424 5.02541 -22.6545 8.67645 1.0026 13.8118 4.68785 9.23784 -2.6388 12.3129 2.53376 -11.4709 -6.40625 0.149633 -1.29642e-009 8.75234e-006 -1.46973e-008 
